<?xml version="1.0" standalone="no"?>
<!DOCTYPE svg PUBLIC "-//W3C//DTD SVG 20010904//EN"
 "http://www.w3.org/TR/2001/REC-SVG-20010904/DTD/svg10.dtd">
<svg version="1.0" xmlns="http://www.w3.org/2000/svg"
 width="500.000000pt" height="708.000000pt" viewBox="0 0 500.000000 708.000000"
 preserveAspectRatio="xMidYMid meet">

<g transform="translate(0.000000,708.000000) scale(0.100000,-0.100000)"
fill="#000000" stroke="none">
<path d="M2617 6322 c-10 -10 -17 -25 -16 -33 0 -8 4 -4 9 9 5 12 20 27 32 32
15 5 17 9 7 9 -9 1 -23 -7 -32 -17z"/>
<path d="M2745 6330 c17 -7 15 -9 -12 -9 -18 -1 -48 -8 -67 -18 l-35 -16 21
-40 c19 -38 19 -39 1 -33 -76 30 -187 22 -258 -18 -57 -31 -50 -18 12 23 25
17 44 31 40 31 -14 0 -154 -54 -177 -68 -59 -37 -160 -124 -154 -133 3 -6 -2
-20 -13 -31 -18 -20 -17 -20 25 1 24 12 48 21 54 19 6 -2 -13 -16 -43 -31 -67
-33 -99 -65 -133 -139 -29 -64 -34 -92 -10 -62 18 22 19 27 -13 -61 -8 -22
-16 -56 -16 -76 -1 -21 -5 -35 -9 -32 -12 7 -9 -15 4 -37 12 -19 13 -18 25 12
l13 33 -3 -29 c-2 -35 19 -47 26 -14 3 13 4 1 2 -27 -2 -27 -10 -64 -19 -81
-12 -24 -14 -40 -7 -70 l9 -39 1 38 c1 21 9 52 18 70 l18 32 3 -28 c3 -23 7
-26 30 -22 15 3 21 2 14 -1 -6 -3 -9 -11 -6 -16 4 -7 2 -8 -4 -4 -7 4 -12 1
-12 -8 0 -8 4 -16 10 -18 5 -1 10 -39 11 -83 1 -76 2 -78 15 -50 11 22 13 24
10 7 -2 -12 0 -19 6 -16 5 3 19 -2 30 -13 21 -18 21 -18 9 4 -13 26 -14 43 -2
43 5 0 12 -14 16 -30 4 -17 15 -35 26 -41 26 -13 65 -7 61 9 -1 7 4 19 12 27
12 13 18 12 40 -6 14 -11 26 -16 26 -10 0 16 -64 60 -96 67 -23 4 -29 11 -31
35 -1 16 2 29 7 29 6 0 10 -8 11 -17 0 -11 3 -13 6 -6 3 9 14 11 31 7 37 -9
49 -20 57 -51 3 -15 13 -36 22 -47 15 -20 15 -20 8 -1 -4 11 -10 30 -12 42 -8
35 34 17 53 -24 18 -38 67 -93 82 -93 5 0 12 12 15 28 6 29 57 125 57 107 0
-6 -9 -28 -21 -50 l-21 -40 34 33 c19 17 39 32 46 32 9 0 8 -9 -3 -32 l-16
-33 33 36 c52 57 128 59 128 4 0 -22 -4 -25 -39 -25 -37 0 -111 -24 -111 -36
0 -3 11 -3 24 0 20 5 27 1 38 -21 8 -17 23 -29 37 -31 14 -2 21 0 17 6 -4 6
-2 14 4 17 6 4 9 1 8 -6 -7 -27 23 -19 33 10 6 17 12 31 13 31 2 0 17 -5 35
-11 27 -10 30 -13 19 -27 -14 -17 -15 -17 36 4 20 8 20 8 0 -71 -5 -20 -5 -20
11 0 15 18 15 18 9 -14 -6 -27 -4 -32 6 -26 9 5 11 4 6 -4 -4 -6 -11 -9 -16
-6 -4 3 -15 -6 -24 -20 -14 -21 -14 -24 -1 -19 8 4 15 11 15 17 0 6 3 7 7 4 3
-4 15 0 25 10 22 20 23 13 3 -34 -18 -44 -12 -56 8 -16 8 15 24 37 36 47 12
11 21 24 21 30 -1 6 -10 0 -20 -13 -11 -13 -20 -19 -20 -14 0 16 36 44 45 36
4 -5 6 -1 3 7 -3 8 -1 24 4 35 7 17 8 16 4 -5 -5 -23 -4 -23 8 -7 12 15 14 16
20 2 3 -8 1 -15 -3 -15 -10 0 -54 -70 -48 -77 6 -5 50 54 71 94 9 18 20 49 24
70 10 48 31 49 48 3 8 -23 13 -28 13 -15 1 11 7 29 14 40 16 24 37 103 37 141
0 15 3 24 7 20 4 -4 6 -23 5 -44 -3 -65 17 -12 33 85 l15 88 -5 -80 c-5 -104
11 -139 29 -60 5 22 4 26 -4 15 -7 -11 -10 16 -10 91 0 58 -2 128 -5 155 -4
39 -3 44 5 25 5 -13 14 -73 19 -135 9 -102 9 -98 4 53 -4 126 -10 178 -25 225
-22 67 -60 146 -91 189 -15 22 -17 31 -8 40 7 7 11 8 9 2 -1 -5 10 -30 25 -55
21 -35 27 -40 27 -23 0 12 -6 28 -13 35 -7 7 -14 18 -15 23 -4 20 -77 87 -149
135 -40 27 -74 53 -74 57 0 8 -38 32 -52 33 -5 0 -5 -5 -1 -11 4 -8 -1 -9 -17
-5 -13 4 -1 -5 27 -18 64 -29 192 -115 219 -146 23 -27 20 -25 -103 57 -88 59
-184 104 -220 103 -9 -1 5 -9 32 -20 53 -21 78 -40 109 -85 16 -24 12 -22 -24
12 -46 44 -109 72 -163 74 l-31 1 30 14 c30 15 30 15 -18 10 -27 -3 -46 -2
-42 3 3 5 0 11 -6 13 -5 2 -7 11 -3 21 6 17 14 20 89 33 33 5 37 8 20 14 -27
12 -56 11 -30 0z m-115 -130 c12 -8 9 -10 -11 -10 -14 0 -46 -14 -70 -32 -51
-37 -73 -45 -60 -20 30 55 102 87 141 62z m440 -129 c51 -55 101 -141 130
-227 32 -93 23 -86 -24 19 -46 101 -71 140 -140 215 -21 23 -33 42 -25 42 7 0
34 -22 59 -49z m-767 -628 c5 -42 5 -43 -21 -37 -15 4 -30 8 -34 10 -7 4 6 60
25 109 l11 29 7 -34 c4 -19 9 -54 12 -77z m412 -42 l7 -51 -37 0 c-31 0 -36 3
-31 17 4 9 15 43 24 75 19 64 23 59 37 -41z m-515 39 c0 -5 -2 -10 -4 -10 -3
0 -8 5 -11 10 -3 6 -1 10 4 10 6 0 11 -4 11 -10z m148 4 c-4 -3 2 -14 12 -24
11 -11 16 -27 13 -38 -5 -20 -5 -20 -29 1 -28 24 -33 67 -7 67 9 0 14 -3 11
-6z m-174 -46 c9 -13 14 -17 11 -10 -3 6 -1 12 4 12 6 0 11 -7 11 -15 0 -8 -4
-15 -10 -15 -5 0 -7 -7 -4 -15 5 -11 -1 -15 -19 -15 -32 0 -39 10 -31 49 8 37
16 39 38 9z m-50 -15 c-10 -40 -14 -41 -14 -5 0 18 5 32 10 32 6 0 8 -11 4
-27z m486 -23 c-18 -33 -25 -15 -9 22 9 23 15 28 17 16 2 -9 -2 -27 -8 -38z
m-214 23 c-5 -15 -4 -15 9 1 14 19 15 19 16 -10 0 -25 2 -26 9 -9 l9 20 2 -20
c1 -11 1 -28 1 -38 -1 -10 3 -15 8 -12 6 3 10 20 10 36 0 18 4 28 10 24 6 -4
8 -16 5 -26 -12 -36 -13 -93 -3 -114 5 -12 -2 -7 -17 10 -14 17 -28 40 -31 53
-4 12 -9 22 -13 22 -10 0 -28 53 -23 68 2 6 6 12 9 12 3 0 2 -8 -1 -17z m148
-14 c-3 -5 -10 -7 -15 -3 -5 3 -7 10 -3 15 3 5 10 7 15 3 5 -3 7 -10 3 -15z
m226 -11 c0 -5 -4 -8 -10 -8 -5 0 -10 10 -10 23 0 18 2 19 10 7 5 -8 10 -18
10 -22z m-258 -32 c-4 -6 -7 -13 -8 -16 0 -3 -6 -16 -12 -30 -10 -24 -11 -24
-11 -2 -1 12 3 22 8 22 6 0 8 8 6 18 -2 11 3 19 10 19 8 0 11 -5 7 -11z m282
-32 c9 -20 15 -38 13 -40 -1 -2 -16 0 -31 4 -23 6 -29 14 -31 40 -4 45 26 43
49 -4z m66 -26 c0 -25 -4 -38 -9 -32 -8 8 -4 74 5 74 2 0 4 -19 4 -42z m-652
-3 c-3 -3 -9 2 -12 12 -6 14 -5 15 5 6 7 -7 10 -15 7 -18z m32 1 c0 -3 -4 -8
-10 -11 -5 -3 -10 -1 -10 4 0 6 5 11 10 11 6 0 10 -2 10 -4z m667 -68 c-3 -8
-6 -5 -6 6 -1 11 2 17 5 13 3 -3 4 -12 1 -19z"/>
<path d="M2430 5296 c0 -2 8 -10 18 -17 15 -13 16 -12 3 4 -13 16 -21 21 -21
13z"/>
<path d="M2789 6309 c-12 -8 -12 -10 1 -8 8 1 23 -1 33 -6 10 -4 20 -5 22 -3
11 10 -42 26 -56 17z"/>
<path d="M2493 6283 c9 -2 23 -2 30 0 6 3 -1 5 -18 5 -16 0 -22 -2 -12 -5z"/>
<path d="M2725 6280 c-14 -7 -8 -8 20 -3 22 3 42 7 44 9 9 8 -45 2 -64 -6z"/>
<path d="M2433 6273 c9 -2 23 -2 30 0 6 3 -1 5 -18 5 -16 0 -22 -2 -12 -5z"/>
<path d="M2685 6270 c3 -5 8 -10 11 -10 2 0 4 5 4 10 0 6 -5 10 -11 10 -5 0
-7 -4 -4 -10z"/>
<path d="M2808 6273 c7 -3 16 -2 19 1 4 3 -2 6 -13 5 -11 0 -14 -3 -6 -6z"/>
<path d="M2388 6263 c7 -3 16 -2 19 1 4 3 -2 6 -13 5 -11 0 -14 -3 -6 -6z"/>
<path d="M2320 6245 c-33 -19 -21 -19 21 0 19 8 27 14 19 14 -8 0 -26 -6 -40
-14z"/>
<path d="M2250 6208 c-19 -12 -57 -30 -85 -40 -28 -9 -40 -17 -29 -18 21 0
129 51 149 71 15 15 2 10 -35 -13z"/>
<path d="M2049 6136 c7 -8 26 -18 42 -21 35 -8 35 -11 7 -44 -13 -14 0 -6 27
18 28 25 51 45 52 46 2 1 -23 0 -55 -2 -41 -2 -51 0 -37 6 17 8 15 10 -14 10
-28 1 -32 -1 -22 -13z"/>
<path d="M2059 6023 c-29 -35 -41 -53 -36 -53 2 0 17 16 31 35 28 36 31 49 5
18z"/>
<path d="M1957 5896 c-35 -40 -53 -67 -46 -72 6 -3 17 1 25 10 8 9 9 11 2 6
-7 -6 -17 -10 -22 -10 -6 0 10 21 35 48 47 49 74 82 68 82 -2 0 -30 -29 -62
-64z"/>
<path d="M1970 5870 c-1 -3 -3 -18 -6 -35 -3 -28 -3 -29 7 -6 5 13 8 29 5 35
-2 6 -5 9 -6 6z"/>
<path d="M1941 5744 c0 -11 3 -14 6 -6 3 7 2 16 -1 19 -3 4 -6 -2 -5 -13z"/>
<path d="M1933 5675 c0 -22 2 -30 4 -17 2 12 2 30 0 40 -3 9 -5 -1 -4 -23z"/>
<path d="M1917 5595 c-4 -22 -6 -53 -6 -70 1 -16 5 -3 10 30 10 67 6 102 -4
40z"/>
<path d="M1991 5554 c0 -11 3 -14 6 -6 3 7 2 16 -1 19 -3 4 -6 -2 -5 -13z"/>
<path d="M1930 5486 c0 -19 -4 -38 -10 -41 -16 -10 -12 -45 5 -45 12 0 15 13
15 60 0 33 -2 60 -5 60 -3 0 -5 -15 -5 -34z"/>
<path d="M1942 5345 c0 -16 2 -22 5 -12 2 9 2 23 0 30 -3 6 -5 -1 -5 -18z"/>
<path d="M3173 5312 c-12 -31 -21 -58 -19 -59 5 -6 47 98 44 107 -2 5 -13 -17
-25 -48z"/>
<path d="M2366 5300 c7 -39 21 -80 28 -80 4 0 -19 84 -29 105 -3 6 -2 -6 1
-25z"/>
<path d="M1951 5284 c0 -11 3 -14 6 -6 3 7 2 16 -1 19 -3 4 -6 -2 -5 -13z"/>
<path d="M1981 5255 c-1 -17 -3 -18 -12 -5 -9 12 -10 12 -5 -3 3 -10 6 -22 6
-26 0 -4 7 -8 15 -8 17 0 18 12 5 42 l-9 20 0 -20z"/>
<path d="M2090 5215 l-2 -50 -12 40 c-9 32 -13 36 -19 22 -4 -11 -4 -24 0 -30
8 -12 11 -107 4 -107 -2 0 -10 8 -18 18 -8 9 -6 1 5 -18 17 -28 36 -120 37
-175 0 -5 3 -12 7 -15 4 -3 19 -93 33 -200 14 -107 28 -206 30 -220 11 -68 25
-204 29 -280 3 -47 19 -271 37 -498 17 -227 29 -416 25 -419 -6 -6 -99 -14
-211 -17 l-50 -1 -3 84 c-2 47 4 125 13 175 22 133 20 241 -9 344 -24 82 -100
262 -111 262 -3 0 1 -13 10 -30 21 -41 19 -50 -5 -15 -12 17 -18 39 -15 52 4
16 1 21 -13 19 -18 -3 -49 31 -37 42 3 3 10 0 15 -8 6 -8 10 -10 10 -4 0 16
-100 108 -139 129 -18 9 -30 12 -27 6 4 -6 3 -11 -3 -11 -5 0 -12 4 -15 9 -6
9 -46 22 -46 15 0 -2 19 -13 41 -25 62 -31 185 -161 173 -181 -4 -6 -3 -8 2
-5 5 3 17 -14 25 -37 11 -32 12 -43 3 -43 -7 0 -10 6 -7 14 8 21 -31 16 -61
-8 -17 -13 -26 -16 -26 -8 0 8 -4 7 -12 -3 -7 -9 -24 -18 -38 -20 -16 -2 -27
-11 -31 -28 l-7 -25 -1 25 -2 25 -13 -24 c-10 -18 -15 -21 -20 -10 -3 8 -4 4
-2 -8 2 -13 0 -26 -5 -29 -5 -3 -9 2 -9 11 0 41 -113 218 -172 269 -59 53 -67
44 -11 -11 64 -62 109 -130 139 -206 34 -87 29 -95 -8 -12 -17 39 -40 84 -51
100 -35 49 -129 145 -144 145 -46 0 33 63 132 105 36 16 63 30 61 32 -2 3 -37
-11 -78 -30 -76 -35 -148 -89 -148 -112 0 -8 -22 -28 -50 -46 -27 -18 -50 -34
-50 -36 0 -6 43 19 78 45 l33 25 25 -24 c107 -99 189 -263 264 -526 22 -79 49
-151 66 -176 16 -23 27 -46 26 -50 -1 -5 2 -6 7 -3 18 11 28 -21 34 -101 l5
-82 -51 -5 c-29 -3 -79 -7 -111 -8 -56 -3 -60 -1 -67 22 -4 15 -6 2 -3 -30 27
-343 31 -517 13 -585 -6 -22 -10 -48 -10 -58 0 -9 -5 -15 -10 -11 -5 3 -8 2
-7 -3 1 -4 -12 -37 -28 -73 -17 -36 -37 -78 -44 -95 -11 -29 -12 -29 -26 -10
-10 13 -14 14 -14 5 0 -8 21 -35 46 -61 41 -41 45 -50 39 -78 -3 -17 -7 -34
-7 -38 0 -4 17 -16 38 -28 55 -30 90 -102 74 -151 -16 -47 -6 -78 31 -105 20
-14 43 -47 61 -86 28 -63 44 -76 111 -97 9 -3 17 -12 17 -20 0 -8 19 -46 43
-86 23 -39 47 -81 54 -93 7 -12 24 -32 39 -43 25 -20 25 -23 11 -50 -33 -65
-92 -237 -90 -261 0 -7 -4 -10 -10 -6 -6 4 -8 0 -4 -10 3 -10 2 -17 -3 -17 -6
0 -10 -9 -10 -19 0 -11 -11 -41 -25 -67 -14 -25 -22 -50 -19 -55 9 -15 -2 -11
-75 28 -82 42 -87 55 -78 182 3 44 2 66 -3 51 -4 -14 -8 -50 -9 -80 l-1 -55
-75 3 c-58 3 -82 0 -101 -13 l-25 -16 -30 68 c-17 37 -37 83 -45 102 -8 18
-17 31 -20 28 -3 -3 0 -15 6 -28 11 -20 10 -21 -11 -16 -13 4 -40 7 -60 7
l-35 0 -23 97 c-17 67 -30 103 -45 114 -78 65 -96 82 -96 93 0 61 -71 183
-143 245 -43 37 -78 116 -89 200 -7 62 -15 83 -46 125 -30 41 -37 59 -40 111
-6 98 34 267 164 680 44 140 52 173 34 145 -7 -11 -10 -12 -10 -2 0 10 -4 10
-16 -2 -8 -9 -12 -21 -8 -27 4 -7 -1 -7 -16 1 -12 6 -24 9 -28 6 -3 -3 0 -6 8
-6 10 0 10 -3 -1 -17 -8 -9 -12 -18 -11 -20 2 -3 1 -7 -2 -10 -3 -4 -6 9 -7
28 -1 29 -3 25 -13 -21 -7 -30 -32 -100 -56 -154 -34 -77 -43 -110 -41 -143 2
-34 -5 -57 -35 -110 -34 -61 -36 -70 -31 -123 4 -35 1 -84 -8 -126 -20 -95
-18 -177 5 -253 24 -75 39 -225 20 -201 -9 13 -10 12 -6 -5 3 -11 17 -65 31
-120 29 -110 23 -103 243 -325 36 -37 79 -93 98 -130 37 -71 59 -99 121 -147
40 -32 72 -36 157 -21 14 2 31 -12 57 -46 46 -61 74 -77 107 -65 14 5 27 8 29
5 2 -2 -1 -50 -7 -106 -16 -158 -16 -155 30 -169 38 -11 40 -14 40 -50 0 -21
6 -43 13 -48 27 -22 286 -94 332 -92 11 0 -34 13 -100 29 -66 16 -146 38 -178
50 -56 21 -57 22 -57 60 0 21 -2 44 -5 52 -3 7 -1 19 4 27 7 11 13 10 33 -3
28 -19 164 -66 187 -66 9 1 -24 14 -74 31 -121 40 -138 52 -132 92 9 57 25
104 26 80 1 -12 6 -25 13 -29 7 -5 9 -2 5 9 -7 18 11 27 54 27 18 0 28 4 24
10 -4 6 -1 9 6 8 6 -2 14 3 17 11 3 9 0 11 -8 6 -9 -5 -11 -4 -6 3 8 14 36 16
36 3 0 -5 -7 -14 -15 -21 -8 -7 -15 -17 -15 -24 0 -6 13 3 29 19 31 33 69 127
121 300 18 61 41 126 50 145 10 19 22 58 29 85 6 28 52 214 101 415 87 354
140 606 140 662 0 15 5 30 11 34 12 7 186 26 229 25 14 -1 53 -4 86 -7 75 -7
148 20 194 73 53 60 124 222 219 495 9 26 19 48 22 48 8 0 19 -117 19 -200 0
-36 5 -129 12 -207 l12 -143 102 0 c55 0 168 -3 251 -7 l150 -6 10 -56 10 -56
2 44 c1 42 2 43 29 37 15 -4 36 -8 47 -9 11 -1 25 -5 30 -8 77 -50 111 -61
203 -68 69 -6 117 -16 166 -36 62 -25 72 -27 100 -16 40 17 110 30 162 30 23
1 63 13 95 29 58 29 61 35 92 157 38 151 40 371 3 493 -13 45 -66 173 -104
252 l-12 25 3 -27 c7 -50 -11 -29 -22 25 -13 66 -38 216 -46 285 -4 33 -19 74
-40 107 -18 30 -47 89 -66 132 -67 154 -105 217 -133 224 -29 8 -28 5 11 -47
13 -17 23 -39 23 -50 0 -10 14 -48 31 -84 17 -36 40 -87 50 -114 11 -27 33
-68 50 -91 25 -35 34 -64 54 -181 22 -130 81 -324 104 -347 6 -6 11 -16 11
-22 0 -6 11 -27 26 -48 40 -59 66 -237 52 -353 -11 -94 -39 -161 -100 -243
l-53 -70 -61 0 c-33 -1 -86 -6 -116 -11 -52 -10 -62 -8 -120 16 -42 17 -88 28
-138 31 -81 5 -157 32 -245 88 -28 18 -59 34 -70 36 -18 4 -20 14 -23 89 -2
47 -7 89 -12 94 -6 6 -10 65 -10 132 0 71 -4 125 -10 129 -14 9 -12 -175 3
-300 7 -55 12 -116 12 -135 0 -33 -2 -35 -35 -35 -38 0 -39 3 -58 115 l-9 55
-2 -82 -1 -83 -29 0 c-16 0 -43 3 -60 6 l-31 7 0 247 c0 135 2 249 4 251 2 2
29 2 60 1 l56 -4 1 -86 1 -87 16 83 c15 83 15 84 44 80 l28 -5 0 80 c0 44 -3
77 -7 73 -5 -4 -8 -29 -8 -54 l0 -46 -43 3 c-23 1 -57 7 -75 12 -17 5 -111 9
-208 9 l-177 0 24 93 c70 274 121 578 125 752 1 33 4 79 6 102 5 37 8 41 24
33 28 -16 36 -12 11 6 -18 13 -20 19 -11 36 7 13 9 43 5 79 -4 33 -3 59 1 59
12 0 62 -32 134 -85 43 -31 66 -56 69 -73 l6 -27 6 29 c5 24 1 31 -25 45 -16
9 -44 27 -61 42 -37 30 -130 89 -140 89 -5 0 -5 -31 -1 -69 5 -46 3 -71 -4
-75 -7 -5 -11 5 -11 29 0 22 -4 34 -10 30 -5 -3 -10 -25 -10 -47 l0 -41 -21
19 c-22 19 -22 19 -8 -3 8 -13 17 -23 21 -23 5 0 8 -22 8 -50 0 -27 -3 -50 -7
-50 -5 0 -6 -25 -5 -55 12 -185 -84 -653 -214 -1044 -121 -363 -201 -469 -350
-459 -48 3 -49 4 -51 38 -10 155 -41 507 -49 562 -5 32 -8 36 -23 29 -17 -10
-177 -8 -187 1 -5 6 -53 608 -68 853 -4 55 -11 140 -16 188 -11 92 -12 101
-30 227 -6 41 -12 98 -14 125 -3 28 -9 75 -15 105 -6 30 -13 84 -16 120 -3 36
-8 73 -11 83 -10 33 17 17 32 -19 11 -26 12 -39 4 -49 -9 -11 -7 -12 9 -8 18
5 18 7 4 41 -8 21 -24 47 -36 60 -20 21 -22 22 -28 5 -7 -16 -8 -15 -8 4 -1
12 -4 28 -7 36 -7 19 27 32 38 15 10 -17 10 -5 -7 102 -12 79 -13 81 -15 35z
m-370 -922 c37 -24 90 -76 90 -87 0 -6 -17 6 -37 25 -21 20 -51 45 -67 57 -34
26 -22 30 14 5z m1510 -1021 c50 -25 70 -66 72 -153 l3 -74 -53 1 c-29 1 -56
5 -60 8 -3 4 -8 36 -10 71 -2 36 -8 62 -13 59 -12 -7 -11 -295 1 -314 7 -11
10 -7 12 20 1 19 3 44 4 55 1 11 2 25 3 30 1 6 24 9 56 7 61 -4 59 -1 55 -92
-2 -57 -23 -96 -61 -116 -43 -22 -106 -11 -149 24 l-33 28 -9 159 c-12 192 -6
238 32 277 34 34 95 38 150 10z m-979 -229 l0 -218 51 -40 c28 -22 61 -47 74
-55 13 -8 24 -18 24 -22 0 -14 -81 -29 -133 -25 -61 4 -86 16 -119 56 -28 32
-43 119 -54 306 l-6 110 33 39 c32 38 78 65 112 66 16 0 17 -17 18 -217z m128
190 c44 -33 59 -79 77 -248 19 -170 17 -196 -17 -238 l-21 -27 -44 32 c-25 18
-49 37 -55 44 -11 13 -49 333 -49 413 l0 54 42 -6 c23 -3 53 -14 67 -24z
m-602 -37 c1 -1 -2 -86 -8 -189 -11 -214 -26 -366 -28 -299 -1 42 -16 57 -24
25 -3 -10 -5 23 -6 72 -1 50 -4 161 -8 248 l-6 159 39 -8 c21 -3 40 -7 41 -8z
m245 -36 c32 -61 16 -199 -25 -200 -6 0 -1 -9 13 -19 22 -18 25 -30 36 -143 7
-67 10 -126 8 -130 -2 -3 -12 -4 -22 -1 -14 3 -17 12 -14 34 3 23 1 28 -11 23
-11 -4 -15 1 -15 18 0 13 -4 43 -10 68 -10 44 -10 44 -7 -21 3 -57 -6 -103
-18 -89 -2 3 2 93 9 200 7 107 13 219 13 248 1 61 14 65 43 12z m255 -317 c-3
-10 -5 -4 -5 12 0 17 2 24 5 18 2 -7 2 -21 0 -30z m-287 -158 c0 -8 -4 -15
-10 -15 -5 0 -7 7 -4 15 4 8 8 15 10 15 2 0 4 -7 4 -15z m-327 -69 l47 -7 0
-42 c0 -23 -5 -93 -11 -156 -9 -94 -16 -125 -40 -173 -16 -32 -33 -56 -38 -54
-18 11 -42 108 -36 144 3 21 8 53 11 72 l5 35 -16 -25 -16 -25 4 32 c2 18 -1
30 -5 27 -9 -6 -10 134 -1 173 4 18 9 20 26 14 12 -5 43 -11 70 -15z m567 -14
c0 -55 -60 -343 -120 -577 -93 -362 -87 -344 -88 -257 0 41 -3 76 -5 79 -3 3
-25 -25 -49 -61 -42 -64 -58 -79 -58 -53 0 6 -11 34 -25 61 -25 49 -36 118
-15 86 8 -11 9 -8 4 11 -3 15 2 91 11 170 13 112 26 173 60 274 24 72 51 162
61 202 l18 72 71 4 c38 1 85 4 103 5 25 2 32 -2 32 -16z m-529 -1539 c13 -16
12 -17 -3 -4 -17 13 -22 21 -14 21 2 0 10 -8 17 -17z m39 -17 c0 -2 -7 -7 -16
-10 -8 -3 -12 -2 -9 4 6 10 25 14 25 6z m24 -15 c3 -5 -2 -15 -12 -22 -15 -12
-16 -12 -5 2 7 9 10 19 6 22 -3 4 -4 7 0 7 3 0 8 -4 11 -9z"/>
<path d="M1737 2848 c4 -32 2 -48 -6 -48 -6 0 -11 -9 -11 -20 0 -11 4 -20 10
-20 15 0 23 69 12 103 -9 29 -10 27 -5 -15z"/>
<path d="M1722 2830 c0 -14 2 -19 5 -12 2 6 2 18 0 25 -3 6 -5 1 -5 -13z"/>
<path d="M2000 2775 c0 -5 5 -17 10 -25 5 -8 10 -10 10 -5 0 6 -5 17 -10 25
-5 8 -10 11 -10 5z"/>
<path d="M1901 1914 c0 -11 3 -14 6 -6 3 7 2 16 -1 19 -3 4 -6 -2 -5 -13z"/>
<path d="M3141 5224 c0 -11 3 -14 6 -6 3 7 2 16 -1 19 -3 4 -6 -2 -5 -13z"/>
<path d="M3126 5185 c-9 -26 -7 -32 5 -12 6 10 9 21 6 23 -2 3 -7 -2 -11 -11z"/>
<path d="M2000 5176 c0 -8 4 -17 9 -20 5 -4 7 3 4 14 -6 23 -13 26 -13 6z"/>
<path d="M3100 5130 c-6 -11 -14 -19 -18 -17 -4 1 -27 -20 -52 -47 -25 -27
-38 -46 -30 -41 8 5 21 17 29 28 7 10 24 22 37 27 19 8 64 70 50 70 -3 0 -10
-9 -16 -20z"/>
<path d="M2973 4994 c-4 -12 -8 -13 -14 -3 -6 10 -12 10 -27 -4 -10 -9 -21
-15 -24 -12 -3 3 -17 -6 -32 -20 -35 -32 -40 -32 -20 3 16 26 15 26 -10 -3
-27 -31 -34 -51 -14 -39 7 4 8 3 4 -5 -4 -6 -11 -9 -16 -6 -5 3 -18 -8 -29
-23 l-20 -29 77 -37 c43 -20 81 -36 85 -36 5 0 25 -11 45 -25 20 -14 46 -25
57 -24 15 1 14 3 -7 9 -15 4 -40 17 -57 29 -16 12 -33 21 -37 21 -4 0 -38 14
-76 31 -63 30 -85 49 -55 49 7 0 43 27 80 61 62 56 68 59 75 40 7 -20 8 -19
19 9 6 16 9 30 7 30 -3 0 -7 -7 -11 -16z"/>
<path d="M2048 4893 c7 -3 16 -2 19 1 4 3 -2 6 -13 5 -11 0 -14 -3 -6 -6z"/>
<path d="M1978 4873 c7 -3 16 -2 19 1 4 3 -2 6 -13 5 -11 0 -14 -3 -6 -6z"/>
<path d="M1938 4863 c7 -3 16 -2 19 1 4 3 -2 6 -13 5 -11 0 -14 -3 -6 -6z"/>
<path d="M1888 4853 c6 -2 18 -2 25 0 6 3 1 5 -13 5 -14 0 -19 -2 -12 -5z"/>
<path d="M1759 4808 l-64 -33 -15 -133 c-16 -144 -11 -133 -89 -192 -10 -8
-22 -26 -26 -40 -6 -24 -6 -25 7 -3 7 12 34 39 59 62 l46 40 13 123 c7 68 17
129 24 137 6 8 38 27 71 42 33 16 55 28 49 29 -6 0 -40 -15 -75 -32z"/>
<path d="M2734 4825 c-18 -14 -18 -14 4 -8 12 3 22 9 22 14 0 12 -3 11 -26 -6z"/>
<path d="M2192 4810 c0 -14 2 -19 5 -12 2 6 2 18 0 25 -3 6 -5 1 -5 -13z"/>
<path d="M3228 4823 c7 -3 16 -2 19 1 4 3 -2 6 -13 5 -11 0 -14 -3 -6 -6z"/>
<path d="M3180 4805 c-14 -8 -20 -14 -14 -15 5 0 19 7 30 15 24 18 16 19 -16
0z"/>
<path d="M3270 4810 c8 -5 20 -10 25 -10 6 0 3 5 -5 10 -8 5 -19 10 -25 10 -5
0 -3 -5 5 -10z"/>
<path d="M3348 4783 c7 -3 16 -2 19 1 4 3 -2 6 -13 5 -11 0 -14 -3 -6 -6z"/>
<path d="M3418 4763 c7 -3 16 -2 19 1 4 3 -2 6 -13 5 -11 0 -14 -3 -6 -6z"/>
<path d="M3070 4750 c-9 -6 -10 -10 -3 -10 6 0 15 5 18 10 8 12 4 12 -15 0z"/>
<path d="M3546 4695 c33 -30 79 -69 104 -86 41 -27 42 -28 10 -2 -19 15 -62
54 -96 85 -33 32 -64 58 -68 58 -5 0 18 -25 50 -55z"/>
<path d="M2840 4734 c0 -14 41 -77 46 -71 3 2 -6 22 -21 42 -14 21 -25 34 -25
29z"/>
<path d="M2722 4670 c0 -14 2 -19 5 -12 2 6 2 18 0 25 -3 6 -5 1 -5 -13z"/>
<path d="M2166 4667 c3 -10 9 -15 12 -12 3 3 0 11 -7 18 -10 9 -11 8 -5 -6z"/>
<path d="M2706 4590 c-4 -28 -9 -58 -12 -68 -5 -13 -4 -14 4 -3 7 10 13 8 26
-10 9 -13 16 -18 16 -12 0 6 -7 16 -16 23 -12 11 -14 25 -8 67 3 29 4 53 1 53
-2 0 -7 -23 -11 -50z"/>
<path d="M3188 4573 c-15 -18 -14 -53 2 -53 5 0 12 9 15 20 8 27 14 26 95 -15
84 -42 107 -44 60 -5 -25 21 -42 27 -60 24 -17 -4 -21 -3 -12 4 10 7 3 13 -27
26 -51 20 -55 20 -73 -1z m82 -13 c8 -5 11 -10 5 -10 -5 0 -17 5 -25 10 -8 5
-10 10 -5 10 6 0 17 -5 25 -10z m65 -30 c3 -5 2 -10 -4 -10 -5 0 -13 5 -16 10
-3 6 -2 10 4 10 5 0 13 -4 16 -10z"/>
<path d="M3709 4567 c5 -5 21 -7 37 -5 27 3 26 4 -8 9 -22 3 -34 1 -29 -4z"/>
<path d="M3798 4573 c7 -3 16 -2 19 1 4 3 -2 6 -13 5 -11 0 -14 -3 -6 -6z"/>
<path d="M3864 4502 c13 -27 33 -55 43 -62 17 -14 17 -14 2 5 -9 11 -26 39
-38 63 -12 23 -24 42 -26 42 -3 0 6 -22 19 -48z"/>
<path d="M2681 4484 c0 -11 3 -14 6 -6 3 7 2 16 -1 19 -3 4 -6 -2 -5 -13z"/>
<path d="M3474 4408 l-19 -23 23 19 c21 18 27 26 19 26 -2 0 -12 -10 -23 -22z"/>
<path d="M3980 4361 c46 -42 76 -61 102 -66 32 -6 43 -15 73 -65 19 -31 44
-88 56 -125 11 -37 22 -65 24 -63 8 7 -34 128 -61 176 -33 61 -50 76 -99 90
-24 7 -61 32 -93 62 -29 27 -56 50 -60 50 -4 0 22 -27 58 -59z"/>
<path d="M2310 4395 c0 -8 4 -15 10 -15 5 0 7 7 4 15 -4 8 -8 15 -10 15 -2 0
-4 -7 -4 -15z"/>
<path d="M2932 4266 c-23 -40 -39 -86 -24 -71 10 11 53 105 47 105 -1 0 -12
-15 -23 -34z"/>
<path d="M1870 4286 c0 -2 7 -7 16 -10 8 -3 12 -2 9 4 -6 10 -25 14 -25 6z"/>
<path d="M3241 4288 c2 -2 18 -14 34 -28 l30 -25 -24 28 c-14 15 -29 27 -34
27 -6 0 -8 -1 -6 -2z"/>
<path d="M3410 4286 c0 -3 28 -24 63 -47 69 -46 93 -70 143 -148 31 -47 34
-57 25 -82 -6 -17 -6 -27 -2 -24 5 2 12 16 15 30 11 45 -75 163 -161 222 -75
50 -83 55 -83 49z"/>
<path d="M3360 4246 c0 -2 7 -7 16 -10 8 -3 12 -2 9 4 -6 10 -25 14 -25 6z"/>
<path d="M2944 4214 c-18 -14 -18 -15 4 -4 12 6 22 13 22 15 0 8 -5 6 -26 -11z"/>
<path d="M1930 4200 c6 -11 13 -20 16 -20 2 0 0 9 -6 20 -6 11 -13 20 -16 20
-2 0 0 -9 6 -20z"/>
<path d="M2875 4201 c-3 -5 -2 -12 3 -15 5 -3 9 1 9 9 0 17 -3 19 -12 6z"/>
<path d="M3431 4183 c7 -12 23 -24 35 -27 13 -4 30 -13 38 -22 9 -8 16 -11 16
-5 0 6 -15 18 -32 27 -18 9 -42 24 -52 33 -18 15 -18 15 -5 -6z"/>
<path d="M1193 4077 c-46 -71 -117 -209 -127 -247 -4 -14 15 21 43 77 27 56
63 122 79 145 32 47 55 88 49 88 -2 0 -22 -29 -44 -63z"/>
<path d="M3522 4103 c22 -51 66 -125 89 -151 16 -18 32 -44 35 -57 3 -14 10
-25 16 -25 10 0 4 23 -18 74 -7 17 -13 25 -14 17 0 -26 -30 10 -66 81 -19 37
-37 68 -40 68 -3 0 -4 -3 -2 -7z"/>
<path d="M2059 4043 c-13 -16 -12 -17 4 -4 9 7 17 15 17 17 0 8 -8 3 -21 -13z"/>
<path d="M2922 4000 c0 -14 2 -19 5 -12 2 6 2 18 0 25 -3 6 -5 1 -5 -13z"/>
<path d="M4260 3981 c0 -5 16 -29 36 -53 45 -54 65 -73 35 -33 -12 17 -31 45
-43 63 -20 33 -28 39 -28 23z"/>
<path d="M1183 3910 c-12 -28 -18 -48 -14 -46 4 3 7 -3 8 -12 2 -27 11 -59 24
-83 11 -22 14 -19 46 46 l35 68 -39 39 -39 39 -21 -51z"/>
<path d="M2941 3864 c0 -11 3 -14 6 -6 3 7 2 16 -1 19 -3 4 -6 -2 -5 -13z"/>
<path d="M4357 3798 c6 -91 11 -103 12 -28 0 36 -3 71 -7 78 -5 7 -7 -16 -5
-50z"/>
<path d="M1146 3838 c-2 -7 -9 -42 -16 -78 -14 -76 -51 -174 -92 -244 -24 -40
-67 -153 -68 -176 0 -3 9 10 20 27 11 18 47 60 80 94 74 76 82 104 84 267 1
117 -1 137 -8 110z"/>
<path d="M2951 3804 c0 -11 3 -14 6 -6 3 7 2 16 -1 19 -3 4 -6 -2 -5 -13z"/>
<path d="M1007 3672 c-53 -144 -61 -180 -17 -79 31 72 73 198 67 204 -2 1 -25
-54 -50 -125z"/>
<path d="M3492 3710 c0 -14 3 -45 7 -70 l8 -45 1 45 c0 25 -4 56 -8 70 l-8 25
0 -25z"/>
<path d="M3546 3644 c-9 -26 -16 -55 -15 -63 0 -9 9 11 19 44 23 70 19 87 -4
19z"/>
<path d="M4372 3650 c0 -14 8 -43 18 -65 22 -48 26 -40 6 12 -8 21 -17 47 -19
58 -4 16 -5 15 -5 -5z"/>
<path d="M3511 3529 c0 -30 4 -63 8 -74 4 -11 6 11 5 49 -4 82 -14 102 -13 25z"/>
<path d="M4410 3535 c0 -5 5 -17 10 -25 5 -8 10 -10 10 -5 0 6 -5 17 -10 25
-5 8 -10 11 -10 5z"/>
<path d="M921 3424 c-18 -52 -31 -97 -29 -99 3 -3 19 38 37 91 18 52 31 97 29
99 -2 2 -18 -39 -37 -91z"/>
<path d="M3800 3516 c0 -2 8 -10 18 -17 15 -13 16 -12 3 4 -13 16 -21 21 -21
13z"/>
<path d="M4436 3470 c3 -14 10 -32 15 -40 7 -13 8 -13 8 0 0 8 -6 26 -15 40
l-15 25 7 -25z"/>
<path d="M3811 3413 c-1 -18 -5 -33 -10 -33 -5 0 -11 -7 -15 -15 -4 -12 -2
-13 14 -3 25 16 28 27 19 58 -7 23 -7 23 -8 -7z"/>
<path d="M1735 3420 c-3 -5 -1 -10 4 -10 6 0 11 5 11 10 0 6 -2 10 -4 10 -3 0
-8 -4 -11 -10z"/>
<path d="M4460 3405 c0 -5 5 -17 10 -25 5 -8 10 -10 10 -5 0 6 -5 17 -10 25
-5 8 -10 11 -10 5z"/>
<path d="M1731 3364 c0 -11 3 -14 6 -6 3 7 2 16 -1 19 -3 4 -6 -2 -5 -13z"/>
<path d="M3806 3301 c-4 -35 -5 -65 -2 -68 6 -7 19 103 14 119 -3 7 -8 -16
-12 -51z"/>
<path d="M870 3279 c0 -2 -15 -47 -34 -99 -32 -91 -102 -387 -93 -396 2 -2 12
33 21 78 35 164 57 250 87 330 16 44 27 83 24 86 -3 3 -5 3 -5 1z"/>
<path d="M1006 3215 c-9 -26 -7 -32 5 -12 6 10 9 21 6 23 -2 3 -7 -2 -11 -11z"/>
<path d="M4537 3195 c3 -22 7 -42 9 -44 8 -9 2 45 -6 64 -7 14 -8 8 -3 -20z"/>
<path d="M906 3207 c3 -10 9 -15 12 -12 3 3 0 11 -7 18 -10 9 -11 8 -5 -6z"/>
<path d="M891 3184 c0 -11 3 -14 6 -6 3 7 2 16 -1 19 -3 4 -6 -2 -5 -13z"/>
<path d="M3801 3174 c0 -11 3 -14 6 -6 3 7 2 16 -1 19 -3 4 -6 -2 -5 -13z"/>
<path d="M981 3144 c0 -11 3 -14 6 -6 3 7 2 16 -1 19 -3 4 -6 -2 -5 -13z"/>
<path d="M3830 3120 c12 -16 24 -30 26 -30 3 0 -3 14 -13 30 -9 17 -21 30 -26
30 -5 0 1 -13 13 -30z"/>
<path d="M881 3114 c0 -11 3 -14 6 -6 3 7 2 16 -1 19 -3 4 -6 -2 -5 -13z"/>
<path d="M4551 3060 c0 -41 3 -81 8 -88 4 -8 6 21 4 65 -6 105 -11 115 -12 23z"/>
<path d="M3846 3038 c13 -65 46 -126 96 -174 28 -27 44 -39 37 -26 -8 12 -17
22 -22 22 -4 0 -6 4 -2 9 3 5 -8 20 -24 33 -34 27 -65 84 -57 104 3 9 1 12 -4
9 -6 -3 -10 5 -10 19 0 14 -4 28 -10 31 -6 4 -7 -6 -4 -27z"/>
<path d="M3891 3026 c12 -20 23 -36 25 -36 7 0 -25 58 -36 65 -5 3 -1 -10 11
-29z"/>
<path d="M3950 2925 c18 -33 38 -64 43 -70 6 -5 -4 17 -22 50 -18 33 -38 65
-44 70 -5 6 5 -17 23 -50z"/>
<path d="M4546 2884 c-4 -31 -5 -59 -2 -61 2 -3 8 21 11 52 4 31 5 58 3 61 -3
2 -8 -21 -12 -52z"/>
<path d="M4000 2831 c0 -6 4 -13 10 -16 6 -3 7 1 4 9 -7 18 -14 21 -14 7z"/>
<path d="M4529 2788 c0 -13 -8 -54 -18 -93 -18 -68 -21 -72 -87 -122 -37 -29
-77 -54 -88 -56 -20 -4 -20 -4 -1 -6 21 -1 38 9 119 69 37 27 49 44 61 83 17
59 30 147 21 147 -3 0 -6 -10 -7 -22z"/>
<path d="M726 2739 c-8 -42 0 -50 9 -9 4 17 5 34 2 36 -2 3 -7 -10 -11 -27z"/>
<path d="M680 2623 c-31 -63 -34 -76 -36 -178 l-2 -110 7 100 c8 105 21 156
54 212 11 19 17 36 15 39 -3 2 -20 -26 -38 -63z"/>
<path d="M3679 2628 c22 -26 88 -58 76 -38 -4 6 -12 10 -20 10 -7 0 -28 12
-47 27 l-33 27 24 -26z"/>
<path d="M3582 2550 c0 -19 2 -27 5 -17 2 9 2 25 0 35 -3 9 -5 1 -5 -18z"/>
<path d="M3780 2570 c8 -5 20 -10 25 -10 6 0 3 5 -5 10 -8 5 -19 10 -25 10 -5
0 -3 -5 5 -10z"/>
<path d="M3828 2553 c6 -2 18 -2 25 0 6 3 1 5 -13 5 -14 0 -19 -2 -12 -5z"/>
<path d="M3920 2540 c14 -4 32 -8 40 -9 13 -1 13 0 0 9 -8 5 -26 9 -40 9 l-25
-1 25 -8z"/>
<path d="M3988 2523 c6 -2 18 -2 25 0 6 3 1 5 -13 5 -14 0 -19 -2 -12 -5z"/>
<path d="M3593 2470 c0 -25 2 -35 4 -22 2 12 2 32 0 45 -2 12 -4 2 -4 -23z"/>
<path d="M4073 2503 c9 -2 25 -2 35 0 9 3 1 5 -18 5 -19 0 -27 -2 -17 -5z"/>
<path d="M4170 2500 c-14 -4 11 -5 55 -2 44 2 82 6 84 8 8 7 -114 2 -139 -6z"/>
<path d="M3073 2420 c-1 -41 3 -118 7 -170 6 -89 7 -91 7 -25 0 39 -3 115 -7
170 -6 96 -7 97 -7 25z"/>
<path d="M3603 2350 c0 -36 2 -50 4 -32 2 17 2 47 0 65 -2 17 -4 3 -4 -33z"/>
<path d="M2542 2350 c0 -14 2 -19 5 -12 2 6 2 18 0 25 -3 6 -5 1 -5 -13z"/>
<path d="M633 2295 c0 -22 2 -30 4 -17 2 12 2 30 0 40 -3 9 -5 -1 -4 -23z"/>
<path d="M2551 2284 c0 -11 3 -14 6 -6 3 7 2 16 -1 19 -3 4 -6 -2 -5 -13z"/>
<path d="M1390 2275 c14 -8 30 -14 35 -14 6 0 -1 6 -15 14 -14 8 -29 14 -35
14 -5 0 1 -6 15 -14z"/>
<path d="M3613 2240 c0 -25 2 -35 4 -22 2 12 2 32 0 45 -2 12 -4 2 -4 -23z"/>
<path d="M1450 2250 c8 -5 20 -10 25 -10 6 0 3 5 -5 10 -8 5 -19 10 -25 10 -5
0 -3 -5 5 -10z"/>
<path d="M640 2244 c2 -26 48 -216 49 -197 1 22 -37 195 -45 202 -2 2 -4 0 -4
-5z"/>
<path d="M3613 2145 c0 -27 2 -38 4 -22 2 15 2 37 0 50 -2 12 -4 0 -4 -28z"/>
<path d="M3092 2095 c0 -16 2 -22 5 -12 2 9 2 23 0 30 -3 6 -5 -1 -5 -18z"/>
<path d="M3623 2025 c0 -33 2 -45 4 -27 2 18 2 45 0 60 -2 15 -4 0 -4 -33z"/>
<path d="M3101 1974 c0 -11 3 -14 6 -6 3 7 2 16 -1 19 -3 4 -6 -2 -5 -13z"/>
<path d="M3622 1910 c0 -14 2 -19 5 -12 2 6 2 18 0 25 -3 6 -5 1 -5 -13z"/>
<path d="M3113 1840 c0 -47 2 -66 4 -42 2 23 2 61 0 85 -2 23 -4 4 -4 -43z"/>
<path d="M1390 1880 c-20 -6 -21 -8 -5 -8 11 0 29 3 40 8 25 11 -1 11 -35 0z"/>
<path d="M3631 1849 c0 -19 4 -52 9 -74 7 -31 7 -24 3 30 -6 74 -13 101 -12
44z"/>
<path d="M1533 1862 c-8 -5 3 -8 25 -8 20 0 46 -3 57 -8 12 -4 10 -1 -5 8 -27
17 -58 20 -77 8z"/>
<path d="M2161 1824 c0 -11 3 -14 6 -6 3 7 2 16 -1 19 -3 4 -6 -2 -5 -13z"/>
<path d="M2173 1690 c0 -47 2 -66 4 -42 2 23 2 61 0 85 -2 23 -4 4 -4 -43z"/>
<path d="M3122 1700 c0 -30 3 -80 8 -110 l7 -55 1 55 c0 30 -3 80 -8 110 l-7
55 -1 -55z"/>
<path d="M1598 1723 c7 -3 16 -2 19 1 4 3 -2 6 -13 5 -11 0 -14 -3 -6 -6z"/>
<path d="M2581 1684 c0 -11 3 -14 6 -6 3 7 2 16 -1 19 -3 4 -6 -2 -5 -13z"/>
<path d="M3642 1660 c0 -19 2 -27 5 -17 2 9 2 25 0 35 -3 9 -5 1 -5 -18z"/>
<path d="M1766 1637 c3 -10 9 -15 12 -12 3 3 0 11 -7 18 -10 9 -11 8 -5 -6z"/>
<path d="M3632 1590 c0 -19 2 -27 5 -17 2 9 2 25 0 35 -3 9 -5 1 -5 -18z"/>
<path d="M1909 1565 c-3 -2 -19 -5 -37 -7 -17 -1 -29 -4 -26 -7 2 -3 -6 -11
-18 -19 -13 -7 -15 -11 -6 -8 9 3 35 10 57 16 23 6 41 15 41 20 0 11 -4 13
-11 5z"/>
<path d="M3632 1530 c0 -14 2 -19 5 -12 2 6 2 18 0 25 -3 6 -5 1 -5 -13z"/>
<path d="M2590 1454 c0 -166 22 -609 32 -624 6 -10 7 2 3 35 -2 28 -10 190
-16 360 -11 305 -19 404 -19 229z"/>
<path d="M3143 1485 c0 -27 2 -38 4 -22 2 15 2 37 0 50 -2 12 -4 0 -4 -28z"/>
<path d="M1764 1504 c-18 -14 -18 -14 6 -3 31 14 36 19 24 19 -6 0 -19 -7 -30
-16z"/>
<path d="M3624 1360 c0 -63 1 -89 3 -57 2 31 2 83 0 115 -2 31 -3 5 -3 -58z"/>
<path d="M1684 1394 c-8 -20 -14 -42 -12 -49 2 -8 10 8 19 36 18 57 15 65 -7
13z"/>
<path d="M2173 1380 c0 -25 2 -35 4 -22 2 12 2 32 0 45 -2 12 -4 2 -4 -23z"/>
<path d="M3151 1274 c-1 -112 2 -155 12 -168 10 -14 12 -31 5 -65 -11 -60 -9
-297 3 -257 14 49 13 310 -1 337 -9 16 -11 54 -6 133 3 61 2 125 -3 141 -6 21
-9 -17 -10 -121z"/>
<path d="M1300 1320 c-13 -9 -13 -10 0 -10 8 0 22 5 30 10 13 9 13 10 0 10 -8
0 -22 -5 -30 -10z"/>
<path d="M2076 1132 c-44 -97 -92 -185 -112 -208 -49 -55 -77 -94 -67 -94 17
1 107 130 150 215 51 100 114 247 110 252 -2 2 -38 -73 -81 -165z"/>
<path d="M3618 1143 c5 -21 7 -23 10 -9 2 10 0 22 -6 28 -6 6 -7 0 -4 -19z"/>
<path d="M3612 1041 c-1 -30 -9 -53 -24 -70 l-22 -26 27 26 c24 22 28 32 24
70 l-4 44 -1 -44z"/>
<path d="M1960 960 c-9 -6 -10 -10 -3 -10 6 0 15 5 18 10 8 12 4 12 -15 0z"/>
<path d="M1720 949 c0 -5 5 -7 10 -4 6 3 10 8 10 11 0 2 -4 4 -10 4 -5 0 -10
-5 -10 -11z"/>
<path d="M1900 930 c-9 -6 -10 -10 -3 -10 6 0 15 5 18 10 8 12 4 12 -15 0z"/>
<path d="M3474 893 c-40 -31 -60 -39 -109 -44 l-60 -6 62 -1 c56 -2 64 1 102
32 22 19 46 36 53 39 7 2 10 7 7 11 -3 3 -28 -11 -55 -31z"/>
<path d="M3240 833 l-55 -13 54 5 c49 4 71 11 60 18 -2 1 -29 -3 -59 -10z"/>
<path d="M3561 774 c0 -11 3 -14 6 -6 3 7 2 16 -1 19 -3 4 -6 -2 -5 -13z"/>
<path d="M1878 763 c6 -2 18 -2 25 0 6 3 1 5 -13 5 -14 0 -19 -2 -12 -5z"/>
<path d="M2598 755 c-3 -3 -38 -9 -79 -14 l-74 -10 77 2 c45 2 82 7 90 15 7 7
8 12 2 12 -6 0 -13 -2 -16 -5z"/>
<path d="M3551 724 c0 -12 -11 -26 -23 -32 -13 -6 -18 -11 -12 -11 21 -2 46
25 41 45 -4 18 -5 17 -6 -2z"/>
<path d="M2018 723 c7 -3 16 -2 19 1 4 3 -2 6 -13 5 -11 0 -14 -3 -6 -6z"/>
<path d="M2068 723 c7 -3 16 -2 19 1 4 3 -2 6 -13 5 -11 0 -14 -3 -6 -6z"/>
<path d="M2378 723 c12 -2 30 -2 40 0 9 3 -1 5 -23 4 -22 0 -30 -2 -17 -4z"/>
<path d="M2123 713 c9 -2 25 -2 35 0 9 3 1 5 -18 5 -19 0 -27 -2 -17 -5z"/>
<path d="M3172 695 c0 -16 2 -22 5 -12 2 9 2 23 0 30 -3 6 -5 -1 -5 -18z"/>
<path d="M2238 703 c7 -3 16 -2 19 1 4 3 -2 6 -13 5 -11 0 -14 -3 -6 -6z"/>
<path d="M2611 674 c0 -11 3 -14 6 -6 3 7 2 16 -1 19 -3 4 -6 -2 -5 -13z"/>
<path d="M3460 670 c-21 -7 -21 -8 -5 -9 11 0 27 4 35 9 18 11 5 11 -30 0z"/>
<path d="M3360 650 c-20 -6 -21 -8 -5 -8 11 0 34 4 50 8 27 7 27 8 5 8 -14 0
-36 -4 -50 -8z"/>
<path d="M2621 624 c0 -11 3 -14 6 -6 3 7 2 16 -1 19 -3 4 -6 -2 -5 -13z"/>
<path d="M3180 630 c-23 -7 -23 -8 -3 -9 12 -1 25 4 28 9 3 6 5 10 3 9 -2 -1
-14 -5 -28 -9z"/>
<path d="M3248 633 c12 -2 30 -2 40 0 9 3 -1 5 -23 4 -22 0 -30 -2 -17 -4z"/>
<path d="M3093 613 c9 -2 23 -2 30 0 6 3 -1 5 -18 5 -16 0 -22 -2 -12 -5z"/>
<path d="M2008 603 c12 -2 30 -2 40 0 9 3 -1 5 -23 4 -22 0 -30 -2 -17 -4z"/>
<path d="M3028 603 c6 -2 18 -2 25 0 6 3 1 5 -13 5 -14 0 -19 -2 -12 -5z"/>
<path d="M2083 593 c9 -2 25 -2 35 0 9 3 1 5 -18 5 -19 0 -27 -2 -17 -5z"/>
<path d="M2943 593 c9 -2 23 -2 30 0 6 3 -1 5 -18 5 -16 0 -22 -2 -12 -5z"/>
<path d="M2165 580 c30 -8 132 -13 124 -6 -2 2 -38 6 -79 9 -44 3 -63 2 -45
-3z"/>
<path d="M2808 583 c17 -2 47 -2 65 0 17 2 3 4 -33 4 -36 0 -50 -2 -32 -4z"/>
<path d="M2548 573 c23 -2 61 -2 85 0 23 2 4 4 -43 4 -47 0 -66 -2 -42 -4z"/>
</g>
</svg>
