<svg viewBox="0 0 576 512" xmlns="http://www.w3.org/2000/svg"><path d="M176 416c-26.51 0-47.1 21.49-47.1 48s20.6 48 47.1 48 47.1-21.49 47.1-48-20.6-48-47.1-48zM569.5 44.73C563.4 36.64 554.1 32 543.1 32h-422l-1.5-12.49C117.4 8.191 107.5 0 96 0H23.1C10.75 0 0 10.75 0 23.1S10.75 48 23.1 48h52.14l60.28 316.5C138.6 375.8 148.5 384 160 384h328c13.25 0 24-10.75 24-23.1 0-14.2-10.7-24.9-24-24.9H179.9l-9.2-48h318.4c14.29 0 26.84-9.47 30.77-23.21l54.86-191.1c2.77-10.64.87-20.86-5.23-28.96zM416 160c0 11.31-9.256 20.57-20.57 20.57h-38.86v38.85C356.6 230.7 347.3 240 336 240s-20.57-9.258-20.57-20.57V180.6H276.6c-11.3 0-20.6-9.3-20.6-20.6s9.256-20.57 20.57-20.57h38.86V100.6c0-11.31 9.258-20.57 20.57-20.57s20.57 9.256 20.57 20.57v38.85h38.86C406.7 139.4 416 148.7 416 160zm47.1 256c-26.51 0-47.1 21.49-47.1 48s21.49 48 47.1 48 47.1-21.49 47.1-48-19.7-48-47.1-48z" fill="#25991d" class="fill-000000"></path></svg>