<svg data-name="Layer 1" viewBox="0 0 512 512" xmlns="http://www.w3.org/2000/svg"><path d="M336.05 141c-46.8-47.13-123.52-47.13-171 0a120.88 120.88 0 0 0-36.13 85.41 119.61 119.61 0 0 0 120 120.83 122 122 0 0 0 121.84-120.79A119.09 119.09 0 0 0 336.05 141Zm-9.42 162.8c-43.11 42.71-112.64 42.69-154.95 0a107.72 107.72 0 0 1-31.42-77.36A110.61 110.61 0 0 1 250.79 117a108.27 108.27 0 0 1 108.6 109.35 109.73 109.73 0 0 1-32.76 77.42Z" fill="#e0e0e0" class="fill-000000"></path><path d="M301.62 174.58a73.23 73.23 0 1 0 0 103.62 72.79 72.79 0 0 0 0-103.62Zm-95.57 95.58a62 62 0 0 1 0-87.53 61.13 61.13 0 0 1 38.08-17.57v61.33a5.67 5.67 0 0 0 1.66 4l43.37 43.37c-24.31 20.17-60.37 19.14-83.11-3.6Zm91.16-4.43L255.51 224v-59a61.15 61.15 0 0 1 38.07 17.57c22.75 22.81 23.77 58.87 3.63 83.16Z" fill="#e0e0e0" class="fill-000000"></path><path d="m469.46 401-87.54-87.54a157.93 157.93 0 0 0-19.82-199.14c-1.14-1.15-2.39-2.13-3.56-3.24l43-43.06h64.88a5.69 5.69 0 0 0 0-11.38h-67.18a5.68 5.68 0 0 0-4 1.67l-45.14 45.14a158.64 158.64 0 0 0-212.53 235c3.08 3.08 6.28 6 9.55 8.76l-43.29 43.3h-64.9a5.69 5.69 0 1 0 0 11.37h67.23a5.73 5.73 0 0 0 4-1.66l45.94-45.94a157.76 157.76 0 0 0 180.78 4.2L424.45 446a31.82 31.82 0 0 0 45-45Zm-8.06 37c-7.7 7.71-21.19 7.71-28.89 0l-90.89-90.9a5.71 5.71 0 0 0-4-1.67 5.56 5.56 0 0 0-3.27 1.05 147.28 147.28 0 1 1 35.58-35.59 5.69 5.69 0 0 0 .63 7.31l90.87 90.88a20.47 20.47 0 0 1-.03 28.92Z" fill="#e0e0e0" class="fill-000000"></path><path d="M466.47 90.64H419.4a5.69 5.69 0 1 0 0 11.37h47.07a5.69 5.69 0 0 0 0-11.37ZM38.93 367.89H86a5.69 5.69 0 1 0 0-11.38H38.93a5.69 5.69 0 1 0 0 11.38Z" fill="#e0e0e0" class="fill-000000"></path></svg>