<svg viewBox="0 0 48 48" xmlns="http://www.w3.org/2000/svg"><g data-name="8-Medical report"><path d="M34 7h5a3 3 0 0 1 3 3v34a3 3 0 0 1-3 3H9a3 3 0 0 1-3-3V10a3 3 0 0 1 3-3h5v3h20Z" fill="#edece8" class="fill-fed049"></path><path d="M34 7v3H14V7a1 1 0 0 1 1-1h4a5 5 0 0 1 10 0h4a1 1 0 0 1 1 1Z" fill="#edf1f5" class="fill-a4b0c0"></path><path d="M38 14v28a1 1 0 0 1-1 1H11a1 1 0 0 1-1-1V14Z" fill="#e8e8e8" class="fill-f1f2f2"></path><rect height="4" rx="1" ry="1" width="8" x="15" y="19" fill="#edf1f5" class="fill-a4b0c0"></rect><path d="M12 11h24a1 1 0 0 0 0-2h-1V7a2 2 0 0 0-2-2h-3.083a6 6 0 0 0-11.834 0H15a2 2 0 0 0-2 2v2h-1a1 1 0 0 0 0 2Zm3-4h4a1 1 0 0 0 1-1 4 4 0 0 1 8 0 1 1 0 0 0 1 1h4v2H15ZM9 14v28a2 2 0 0 0 2 2h26a2 2 0 0 0 2-2V14a1 1 0 0 0-1-1H10a1 1 0 0 0-1 1Zm2 1h26v27H11Z" fill="#6b6e73" class="fill-474c54"></path><path d="M25 5h-2a1 1 0 0 0 0 2h2a1 1 0 0 0 0-2ZM34 34h-3.586l-3.707-3.707a1 1 0 0 0-1.414 0L20 35.586l-2.293-2.293A1 1 0 0 0 17 33h-3a1 1 0 0 0 0 2h2.586l2.707 2.707a1 1 0 0 0 1.414 0L26 32.414l3.293 3.293A1 1 0 0 0 30 36h4a1 1 0 0 0 0-2Z" fill="#6b6e73" class="fill-474c54"></path><path d="M39 6a1 1 0 0 0 0 2 2 2 0 0 1 2 2v34a2 2 0 0 1-2 2H9a2 2 0 0 1-2-2V10a2 2 0 0 1 2-2 1 1 0 0 0 0-2 4 4 0 0 0-4 4v34a4 4 0 0 0 4 4h30a4 4 0 0 0 4-4V10a4 4 0 0 0-4-4Z" fill="#6b6e73" class="fill-474c54"></path><path d="M16 24h6a2 2 0 0 0 2-2v-2a2 2 0 0 0-2-2h-6a2 2 0 0 0-2 2v2a2 2 0 0 0 2 2Zm0-4h6v2h-6ZM27 22h3v3a1 1 0 0 0 2 0v-4a1 1 0 0 0-1-1h-4a1 1 0 0 0 0 2ZM15 28h8a1 1 0 0 0 0-2h-8a1 1 0 0 0 0 2Z" fill="#6b6e73" class="fill-474c54"></path></g></svg>